<svg width="20" height="19" viewBox="0 0 20 19" fill="none" xmlns="http://www.w3.org/2000/svg">
<path d="M8.76854 0.591934C9.10083 -0.197312 10.2326 -0.197311 10.5648 0.591936L12.526 5.25021C12.6662 5.58293 12.9829 5.81027 13.3465 5.83907L18.437 6.24225C19.2994 6.31056 19.6492 7.37388 18.992 7.92998L15.1137 11.2121C14.8367 11.4465 14.7156 11.8144 14.8002 12.1649L15.9852 17.0723C16.1859 17.9038 15.2704 18.561 14.5319 18.1155L10.1737 15.4856C9.86244 15.2978 9.47094 15.2978 9.15965 15.4856L4.80144 18.1155C4.06302 18.561 3.14743 17.9038 3.34819 17.0723L4.53312 12.1649C4.61776 11.8144 4.49677 11.4465 4.21976 11.2121L0.341294 7.92998C-0.315828 7.37388 0.033899 6.31056 0.896384 6.24225L5.98693 5.83907C6.35053 5.81027 6.66727 5.58293 6.80735 5.25021L8.76854 0.591934Z" fill="none" stroke="#FF854B" stroke-width="1" stroke-linejoin="round" stroke-linecap="round"/>
</svg>
